<?xml version="1.0" standalone="no"?>
<!DOCTYPE svg PUBLIC "-//W3C//DTD SVG 20010904//EN"
 "http://www.w3.org/TR/2001/REC-SVG-20010904/DTD/svg10.dtd">
<svg version="1.0" xmlns="http://www.w3.org/2000/svg"
 width="1024.000000pt" height="1024.000000pt" viewBox="0 0 1024.000000 1024.000000"
 preserveAspectRatio="xMidYMid meet">
<metadata>
Created by potrace 1.14, written by Peter Selinger 2001-2017
</metadata>
<g transform="translate(0.000000,1024.000000) scale(0.100000,-0.100000)"
fill="#000000" stroke="none">
<path d="M0 5120 l0 -5120 2165 0 2165 0 6 25 c3 14 3 41 0 60 l-7 35 -122 0
c-79 0 -139 5 -171 15 -27 8 -63 15 -81 15 -17 0 -36 5 -41 10 -6 6 -34 13
-62 17 -29 3 -52 10 -52 14 0 5 -19 9 -43 9 -24 0 -52 7 -63 15 -10 8 -31 15
-45 15 -14 0 -34 7 -45 15 -10 8 -35 15 -54 15 -19 0 -46 7 -60 15 -14 8 -37
14 -51 15 -14 0 -34 7 -45 15 -10 8 -30 15 -44 15 -14 0 -34 6 -45 14 -11 7
-37 16 -57 20 -21 4 -38 11 -38 16 0 6 -13 10 -29 10 -16 0 -34 7 -41 15 -7 8
-22 15 -34 16 -11 0 -52 18 -91 39 -38 21 -90 49 -115 61 -25 13 -51 29 -58
36 -7 7 -22 13 -33 13 -10 0 -19 7 -19 15 0 8 -8 15 -19 15 -10 0 -24 7 -31
15 -7 8 -19 15 -26 15 -8 0 -14 4 -14 9 0 10 -38 34 -72 47 -10 3 -18 12 -18
19 0 7 -11 16 -25 19 -14 4 -25 11 -25 16 0 6 -7 10 -15 10 -9 0 -18 7 -21 15
-4 8 -12 15 -20 15 -8 0 -14 4 -14 10 0 5 -12 16 -28 24 -15 8 -44 31 -65 50
-21 20 -40 36 -43 36 -9 0 -304 302 -304 311 0 5 -7 9 -15 9 -8 0 -15 7 -15
15 0 8 -4 15 -9 15 -4 0 -21 19 -37 42 -16 24 -32 44 -36 46 -5 2 -8 10 -8 17
0 7 -7 15 -15 19 -8 3 -15 10 -15 16 0 11 -9 24 -43 61 -9 10 -17 24 -17 29 0
6 -7 13 -15 16 -8 4 -15 14 -15 25 0 10 -6 22 -12 26 -7 4 -22 26 -33 48 -11
22 -25 44 -32 48 -7 4 -13 17 -13 28 0 11 -7 27 -15 35 -8 9 -15 24 -15 35 0
10 -4 19 -9 19 -5 0 -13 10 -16 23 -7 23 -28 72 -52 119 -7 14 -13 35 -13 45
0 11 -7 28 -15 39 -8 10 -15 30 -15 44 0 14 -7 36 -15 50 -8 14 -15 39 -15 55
0 17 -7 39 -15 49 -10 13 -15 44 -15 91 0 39 -5 76 -11 82 -21 21 6 433 30
441 6 2 11 21 11 43 0 26 5 42 15 45 8 4 15 18 15 34 0 15 7 33 15 40 8 7 15
21 15 31 0 11 4 19 10 19 5 0 12 11 16 25 3 14 10 25 15 25 5 0 13 8 16 17 7
17 25 41 51 68 6 8 12 16 12 19 0 10 39 46 50 46 6 0 10 7 10 15 0 8 7 15 15
15 8 0 15 7 15 15 0 8 5 15 11 15 5 0 22 13 37 28 15 16 44 39 65 51 20 13 37
27 37 32 0 5 6 9 14 9 8 0 21 6 28 12 18 17 49 37 68 44 8 3 27 12 42 20 14 8
35 14 45 14 11 0 28 7 39 15 10 8 31 15 46 15 15 0 53 7 85 15 107 28 308 13
410 -31 17 -8 40 -14 51 -14 11 0 25 -7 32 -15 7 -8 21 -15 32 -15 10 0 21 -7
24 -15 4 -8 10 -15 14 -15 5 0 24 -14 42 -30 18 -17 38 -30 45 -30 7 0 13 -5
13 -11 0 -5 13 -22 28 -37 16 -15 46 -49 68 -77 21 -27 45 -56 51 -63 7 -7 13
-20 13 -28 0 -8 5 -14 10 -14 6 0 10 -5 10 -11 0 -6 16 -43 35 -83 19 -40 35
-80 35 -89 0 -9 4 -18 9 -21 5 -3 12 -23 16 -43 4 -21 10 -42 15 -48 4 -5 17
-43 30 -83 12 -39 26 -72 31 -72 5 0 9 -9 9 -19 0 -11 7 -26 15 -35 8 -8 15
-21 15 -28 0 -8 5 -19 11 -25 13 -13 33 -47 48 -80 6 -13 15 -23 20 -23 5 0
12 -11 15 -25 4 -14 11 -25 16 -25 6 0 10 -7 10 -15 0 -9 7 -18 15 -21 8 -4
15 -10 15 -15 0 -19 97 -122 160 -170 25 -18 47 -37 48 -41 2 -5 7 -8 12 -8 5
0 32 -16 61 -35 30 -19 59 -35 66 -35 7 0 21 -4 31 -10 9 -5 40 -19 67 -30 28
-11 57 -25 66 -30 9 -5 33 -12 53 -15 20 -4 36 -11 36 -15 0 -4 17 -11 38 -15
20 -4 42 -10 47 -15 6 -4 33 -11 62 -15 44 -6 52 -4 57 12 16 53 26 323 26
712 0 404 1 438 18 464 27 40 83 87 104 87 10 0 21 7 24 15 4 8 18 15 33 15
15 0 36 7 47 15 10 8 32 15 47 15 15 0 42 7 58 16 45 23 342 23 368 0 10 -9
27 -16 38 -16 11 0 26 -7 33 -15 7 -8 19 -15 26 -15 8 0 14 -4 14 -9 0 -5 8
-12 18 -15 21 -7 92 -72 92 -84 0 -6 7 -12 15 -16 8 -3 15 -12 15 -21 0 -9 6
-26 14 -38 12 -17 17 -98 25 -367 6 -190 14 -432 17 -538 l6 -193 67 7 c36 3
71 10 76 14 6 4 34 11 63 15 28 4 52 10 52 15 0 4 16 11 35 14 19 4 35 11 35
16 0 6 6 10 14 10 37 0 226 114 290 175 21 19 42 35 47 35 5 0 9 4 9 9 0 5 25
35 55 67 31 32 58 68 61 81 4 13 9 23 14 23 7 0 34 57 45 98 4 12 11 22 16 22
5 0 9 12 9 28 0 15 6 36 14 47 7 11 16 40 19 65 3 25 11 77 18 117 11 62 10
83 -4 157 -9 46 -17 97 -17 113 0 15 -7 37 -15 47 -8 11 -15 30 -15 42 0 12
-7 27 -15 34 -8 7 -15 23 -15 36 0 13 -4 24 -9 24 -5 0 -12 14 -16 30 -4 17
-10 30 -13 30 -4 0 -13 13 -20 28 -6 16 -20 37 -30 48 -10 10 -21 27 -25 37
-3 9 -11 17 -16 17 -5 0 -13 9 -16 21 -7 20 -39 59 -50 59 -5 0 -37 25 -60 48
-8 6 -21 12 -29 12 -9 0 -16 7 -16 15 0 9 -9 15 -24 15 -13 0 -26 7 -30 15 -3
8 -17 15 -31 15 -16 0 -25 6 -25 15 0 9 -9 15 -25 15 -14 0 -28 7 -31 15 -4 8
-18 15 -33 15 -15 0 -36 7 -47 15 -10 8 -29 15 -40 15 -12 0 -27 7 -34 15 -7
8 -28 15 -47 15 -19 0 -41 7 -49 15 -9 8 -28 15 -43 15 -16 0 -34 7 -41 15 -7
8 -28 15 -46 15 -19 0 -42 4 -52 9 -24 13 -117 41 -172 52 -25 5 -79 16 -120
24 -41 9 -115 20 -165 26 -49 5 -119 14 -155 20 -36 5 -121 14 -190 19 -249
20 -521 55 -553 71 -9 5 -52 12 -95 16 -42 3 -82 9 -88 14 -6 5 -37 11 -70 15
-32 3 -78 12 -102 20 -23 8 -56 14 -71 14 -16 0 -42 7 -57 15 -16 8 -41 15
-56 15 -16 0 -28 4 -28 9 0 7 -43 20 -132 38 -15 3 -33 11 -39 19 -6 8 -24 14
-38 14 -15 0 -36 7 -47 15 -10 8 -26 15 -35 15 -9 0 -22 7 -29 15 -7 8 -22 15
-34 15 -12 0 -30 6 -41 14 -11 7 -32 16 -47 20 -16 3 -28 11 -28 16 0 6 -13
10 -29 10 -16 0 -31 6 -35 15 -3 8 -16 15 -29 15 -14 0 -30 7 -37 15 -7 8 -20
15 -30 15 -10 0 -23 7 -30 15 -7 8 -21 15 -31 15 -10 0 -20 4 -23 9 -3 5 -29
21 -58 36 -29 15 -55 30 -58 34 -3 3 -23 15 -45 26 -22 11 -46 26 -53 32 -7 7
-20 13 -28 13 -8 0 -17 7 -20 15 -4 8 -12 15 -20 15 -8 0 -14 6 -14 13 0 6
-14 18 -30 25 -17 8 -46 29 -65 48 -20 19 -38 34 -41 34 -7 0 -117 111 -154
156 -14 16 -38 45 -55 65 -16 19 -39 48 -50 63 -11 16 -26 34 -32 41 -7 8 -13
18 -13 23 0 6 -7 12 -15 16 -8 3 -15 11 -15 18 0 8 -13 28 -29 46 -16 17 -32
41 -36 52 -3 11 -11 20 -16 20 -5 0 -9 6 -9 14 0 8 -7 16 -15 20 -8 3 -15 14
-15 25 0 11 -6 24 -13 28 -7 4 -21 26 -32 48 -11 22 -26 44 -32 48 -7 4 -13
16 -13 26 0 10 -7 24 -15 31 -8 7 -15 20 -15 29 0 9 -7 25 -15 35 -8 11 -15
28 -15 38 0 10 -4 18 -10 18 -5 0 -12 17 -16 38 -4 20 -13 46 -20 57 -8 11
-14 32 -14 48 0 16 -7 35 -15 43 -8 9 -15 30 -15 47 0 18 -7 41 -15 51 -8 11
-15 37 -15 57 0 21 -5 39 -12 41 -7 3 -14 32 -16 74 -2 38 -9 75 -15 83 -6 7
-15 59 -19 115 -5 55 -12 142 -17 191 -15 149 -13 433 4 522 8 43 15 110 15
149 0 39 7 91 15 114 8 23 15 63 15 89 1 25 7 57 15 71 8 14 14 48 15 75 0 28
7 63 15 79 8 15 15 40 15 55 0 15 7 36 15 47 8 10 15 33 15 50 0 17 7 37 15
44 8 7 15 20 15 29 0 10 14 44 30 76 17 32 30 66 30 76 0 9 7 22 15 29 8 7 15
23 15 35 0 13 7 25 15 29 8 3 15 14 15 25 0 10 7 21 15 25 8 3 15 14 15 24 0
11 7 25 15 32 8 7 15 18 15 25 0 7 7 15 15 19 8 3 15 12 15 20 0 8 14 30 30
48 17 18 30 38 30 46 0 7 7 15 15 18 8 4 15 12 15 20 0 8 5 14 10 14 6 0 15
10 20 23 14 32 32 58 58 83 12 11 22 26 22 32 0 6 6 15 13 19 7 4 20 19 29 33
8 14 36 47 62 73 25 26 46 52 46 57 0 6 7 10 15 10 8 0 15 4 15 10 0 12 98
110 110 110 6 0 10 7 10 15 0 8 7 15 15 15 8 0 15 7 15 15 0 8 5 15 11 15 7 0
22 11 35 25 13 14 28 25 34 25 6 0 13 7 16 15 3 8 15 17 26 21 12 3 31 16 42
28 28 28 83 66 96 66 5 0 10 4 10 9 0 10 155 111 170 111 5 0 10 4 10 9 0 5
14 12 30 16 17 4 30 11 30 16 0 5 4 9 10 9 5 0 31 14 57 30 26 17 54 30 64 30
9 0 22 7 29 15 7 8 21 15 31 15 9 0 24 7 33 15 8 8 21 15 28 15 8 0 23 7 34
15 10 8 29 15 40 15 12 0 27 7 34 15 7 8 23 15 36 15 12 0 29 7 38 15 8 8 26
15 39 15 14 0 27 7 31 15 3 8 14 15 25 15 11 0 34 7 53 16 76 38 90 44 105 44
8 0 29 6 46 14 18 8 43 17 57 19 51 11 116 30 147 43 17 8 44 14 60 14 17 0
52 7 79 15 27 8 65 15 84 15 19 0 92 8 163 17 l127 18 0 292 0 293 -2165 0
-2165 0 0 -5120z"/>
<path d="M5422 10093 c-19 -228 -26 -387 -18 -417 6 -25 9 -26 82 -26 42 0
106 -7 142 -16 37 -8 87 -20 112 -26 25 -6 63 -14 85 -17 22 -4 50 -13 62 -19
12 -7 30 -12 41 -12 11 0 33 -7 48 -15 16 -8 36 -15 45 -15 9 0 30 -7 45 -15
16 -8 38 -15 49 -15 11 0 29 -7 39 -15 11 -8 32 -15 48 -15 15 0 28 -4 28 -9
0 -5 15 -12 33 -16 30 -6 70 -22 129 -52 14 -7 37 -13 51 -13 14 0 27 -7 31
-15 3 -8 16 -15 29 -15 14 0 30 -7 37 -15 7 -8 18 -15 24 -15 15 0 260 -123
264 -132 2 -5 9 -8 16 -8 6 0 35 -16 65 -35 29 -19 56 -35 61 -35 5 0 10 -4
12 -8 4 -11 157 -112 169 -112 5 0 9 -3 9 -7 0 -5 18 -19 40 -33 22 -13 40
-28 40 -32 0 -4 6 -8 13 -8 6 -1 28 -14 47 -30 19 -17 40 -30 47 -30 7 0 13
-7 13 -15 0 -8 7 -15 15 -15 8 0 15 -7 15 -15 0 -8 7 -15 15 -15 8 0 15 -7 15
-15 0 -8 7 -15 15 -15 8 0 15 -7 15 -15 0 -8 7 -15 15 -15 8 0 15 -7 15 -15 0
-8 7 -15 15 -15 8 0 15 -7 15 -15 0 -8 7 -15 15 -15 8 0 15 -7 15 -15 0 -8 7
-15 15 -15 8 0 15 -6 15 -12 1 -7 14 -24 30 -38 17 -13 30 -30 30 -37 0 -7 5
-13 10 -13 6 0 15 -11 20 -25 5 -14 14 -25 20 -25 5 0 10 -7 10 -15 0 -8 6
-15 14 -15 7 0 17 -8 20 -17 13 -35 37 -73 47 -73 5 0 9 -7 9 -15 0 -8 4 -15
9 -15 5 0 12 -9 16 -19 3 -11 26 -50 50 -87 25 -38 45 -74 45 -80 0 -7 3 -14
8 -16 9 -4 52 -91 52 -107 0 -6 4 -11 9 -11 5 0 12 -13 16 -30 4 -16 11 -30
15 -30 5 0 12 -16 16 -35 3 -19 10 -35 14 -35 5 0 11 -18 15 -40 4 -22 10 -42
15 -45 4 -3 11 -29 15 -58 4 -28 11 -57 17 -64 18 -23 31 -330 19 -457 -6 -66
-15 -124 -20 -130 -5 -6 -12 -35 -16 -63 -4 -29 -11 -53 -15 -53 -5 0 -11 -14
-15 -30 -4 -17 -10 -30 -15 -30 -4 0 -11 -12 -14 -26 -4 -14 -18 -38 -32 -52
-13 -15 -27 -36 -31 -47 -3 -11 -16 -30 -29 -42 -13 -12 -24 -25 -24 -28 0
-10 -100 -105 -110 -105 -4 0 -10 -6 -13 -13 -2 -7 -22 -21 -43 -32 -22 -11
-43 -26 -47 -32 -4 -7 -14 -13 -22 -13 -7 0 -20 -6 -27 -12 -14 -14 -69 -37
-108 -45 -14 -3 -34 -12 -45 -19 -11 -8 -36 -14 -56 -14 -21 0 -39 -6 -42 -12
-3 -10 -43 -13 -155 -13 -107 0 -155 4 -164 13 -6 6 -35 12 -62 12 -28 0 -63
6 -77 14 -14 7 -42 16 -62 20 -21 4 -37 11 -37 16 0 6 -11 10 -24 10 -13 0
-29 6 -35 14 -7 8 -23 17 -36 20 -14 4 -25 11 -25 16 0 6 -6 10 -12 10 -28 1
-142 105 -183 168 -15 23 -32 42 -36 42 -5 0 -9 7 -9 15 0 8 -5 15 -10 15 -6
0 -15 10 -20 23 -12 27 -31 56 -47 75 -7 7 -13 20 -13 28 0 9 -7 22 -15 30 -8
9 -15 24 -15 35 0 10 -4 19 -10 19 -5 0 -14 18 -20 40 -6 21 -15 42 -20 45 -6
3 -10 14 -10 24 0 10 -7 24 -15 31 -8 7 -15 23 -15 35 0 13 -7 25 -15 29 -8 3
-15 13 -15 23 0 10 -14 36 -30 57 -17 22 -30 43 -30 48 0 4 -18 26 -40 48 -22
22 -40 45 -40 50 0 6 -7 10 -15 10 -8 0 -15 7 -15 15 0 8 -5 15 -10 15 -6 0
-30 19 -54 43 -42 41 -67 61 -95 74 -7 3 -27 19 -43 35 -16 15 -38 28 -48 28
-11 0 -20 7 -20 15 0 8 -8 15 -19 15 -10 0 -24 7 -31 15 -7 8 -20 15 -30 15
-10 0 -23 7 -30 15 -7 8 -23 15 -35 15 -12 0 -28 7 -35 15 -7 8 -25 15 -41 15
-15 0 -34 7 -43 15 -8 8 -31 15 -51 15 -20 0 -49 7 -65 16 -60 36 -58 55 -62
-518 -4 -495 -5 -525 -24 -558 -10 -19 -25 -39 -31 -43 -7 -4 -13 -13 -13 -18
0 -13 -25 -39 -38 -39 -5 0 -15 -7 -22 -15 -7 -8 -20 -15 -29 -15 -9 0 -29 -7
-45 -15 -15 -8 -38 -15 -51 -15 -12 0 -40 -7 -61 -16 -31 -13 -64 -15 -156
-12 -73 2 -123 9 -130 16 -7 7 -21 12 -31 12 -17 0 -49 14 -97 41 -8 5 -22 12
-30 15 -8 3 -22 10 -30 15 -8 5 -23 12 -32 15 -10 4 -18 13 -18 20 0 8 -4 14
-9 14 -13 0 -81 65 -81 78 0 5 -7 12 -15 16 -8 3 -15 14 -15 24 0 11 -7 36
-15 55 -13 30 -15 106 -15 463 0 371 -2 430 -16 460 -18 38 -28 41 -50 19 -9
-8 -30 -15 -48 -15 -18 0 -41 -7 -52 -15 -10 -8 -31 -15 -46 -15 -16 0 -28 -4
-28 -10 0 -5 -17 -14 -37 -20 -21 -6 -51 -20 -68 -30 -16 -11 -40 -24 -52 -30
-13 -5 -23 -13 -23 -17 0 -8 -29 -26 -62 -39 -10 -3 -18 -13 -18 -20 0 -8 -7
-14 -15 -14 -8 0 -15 -7 -15 -15 0 -8 -4 -15 -9 -15 -13 0 -171 -158 -171
-171 0 -5 -7 -9 -15 -9 -8 0 -15 -5 -15 -10 0 -12 -41 -73 -52 -78 -5 -2 -8
-10 -8 -18 0 -8 -4 -14 -10 -14 -5 0 -13 -12 -16 -27 -4 -15 -13 -34 -21 -41
-7 -7 -13 -21 -13 -31 0 -10 -8 -33 -17 -52 -25 -49 -25 -350 0 -377 10 -10
17 -33 17 -50 0 -38 93 -222 113 -222 4 0 7 -7 7 -15 0 -8 7 -15 15 -15 8 0
15 -5 15 -11 0 -15 124 -139 138 -139 7 0 12 -7 12 -15 0 -8 6 -15 14 -15 8 0
16 -7 20 -15 3 -8 12 -15 20 -15 8 0 44 -18 80 -40 37 -22 90 -49 119 -60 28
-11 59 -24 67 -29 9 -5 31 -12 50 -16 19 -4 40 -11 45 -15 9 -7 55 -19 153
-40 44 -10 121 -34 157 -49 57 -24 377 -76 625 -102 57 -6 112 -15 121 -20 10
-5 35 -9 57 -9 22 0 56 -7 75 -15 20 -8 55 -15 77 -15 22 0 57 -7 77 -15 19
-8 58 -15 85 -15 27 0 65 -7 85 -15 19 -8 52 -15 73 -15 21 0 54 -7 73 -15 20
-8 55 -15 77 -15 23 0 53 -6 68 -14 15 -7 51 -16 81 -19 30 -4 59 -11 65 -17
5 -5 28 -10 50 -10 23 0 54 -7 70 -15 15 -8 42 -15 60 -15 17 0 44 -7 60 -15
15 -8 42 -15 60 -15 17 0 44 -7 60 -15 15 -8 36 -15 45 -15 9 0 29 -7 45 -15
15 -8 35 -15 43 -15 8 0 27 -6 41 -14 48 -24 102 -46 116 -46 8 0 19 -7 26
-15 7 -8 20 -15 30 -15 10 0 23 -7 30 -15 7 -8 20 -15 30 -15 10 0 23 -7 30
-15 7 -8 21 -15 31 -15 11 0 19 -4 19 -10 0 -5 12 -13 27 -16 15 -4 34 -13 41
-21 7 -7 19 -13 26 -13 8 0 19 -7 26 -15 7 -8 21 -15 32 -15 10 0 21 -7 24
-15 4 -8 15 -15 25 -15 11 0 22 -6 25 -13 2 -7 25 -22 49 -32 25 -11 45 -23
45 -27 0 -5 7 -8 15 -8 8 0 15 -4 15 -9 0 -4 20 -21 45 -37 25 -15 45 -32 45
-36 0 -4 5 -8 10 -8 6 0 18 -8 29 -18 10 -9 35 -30 56 -47 56 -45 115 -104
115 -115 0 -5 7 -10 15 -10 8 0 15 -7 15 -15 0 -8 7 -15 15 -15 8 0 15 -7 15
-15 0 -8 6 -15 13 -15 6 0 30 -25 51 -55 22 -30 43 -55 48 -55 4 0 8 -5 8 -10
0 -6 11 -21 25 -34 14 -13 25 -28 25 -35 0 -6 4 -11 9 -11 5 0 22 -20 38 -45
15 -25 31 -45 36 -45 4 0 7 -6 7 -13 0 -7 16 -36 35 -66 19 -29 35 -57 35 -62
0 -5 4 -9 9 -9 5 0 12 -13 16 -30 4 -16 11 -30 16 -30 5 0 9 -5 9 -10 0 -6 16
-45 35 -86 19 -41 35 -81 35 -89 0 -8 5 -15 10 -15 6 0 10 -12 10 -27 0 -16 7
-37 15 -47 8 -11 15 -32 15 -47 0 -14 7 -32 15 -39 8 -7 15 -29 15 -49 0 -21
7 -46 15 -57 8 -10 15 -40 15 -65 0 -26 7 -66 15 -89 8 -23 15 -66 15 -94 0
-28 7 -82 15 -121 18 -85 22 -693 5 -726 -6 -10 -13 -56 -17 -101 -3 -46 -12
-100 -20 -122 -7 -21 -13 -54 -13 -73 0 -18 -7 -50 -15 -70 -8 -19 -15 -54
-15 -77 0 -23 -7 -51 -15 -62 -8 -10 -15 -35 -15 -54 0 -19 -7 -44 -15 -54 -8
-11 -15 -34 -15 -50 0 -40 -78 -247 -133 -351 -23 -44 -75 -142 -93 -175 -10
-19 -22 -36 -26 -38 -5 -2 -8 -8 -8 -14 0 -14 -83 -138 -92 -138 -4 0 -8 -7
-8 -15 0 -8 -4 -15 -10 -15 -5 0 -10 -7 -10 -15 0 -8 -4 -15 -8 -15 -4 0 -15
-12 -24 -27 -10 -16 -33 -45 -53 -66 -19 -21 -35 -42 -35 -48 0 -5 -7 -9 -15
-9 -8 0 -15 -5 -15 -11 0 -22 -295 -319 -317 -319 -3 0 -16 -11 -29 -25 -13
-14 -27 -25 -32 -25 -6 0 -12 -7 -16 -15 -3 -8 -12 -15 -19 -15 -8 0 -27 -13
-43 -30 -16 -16 -35 -30 -41 -30 -7 0 -13 -5 -13 -10 0 -6 -11 -15 -25 -20
-14 -5 -25 -14 -25 -20 0 -5 -9 -10 -20 -10 -11 0 -20 -6 -20 -14 0 -8 -11
-17 -25 -20 -14 -4 -25 -11 -25 -16 0 -6 -9 -10 -20 -10 -11 0 -20 -6 -20 -14
0 -8 -11 -17 -25 -20 -14 -4 -25 -11 -25 -16 0 -6 -9 -10 -19 -10 -11 0 -22
-4 -26 -9 -3 -5 -40 -27 -83 -48 -42 -21 -78 -41 -80 -45 -2 -5 -9 -8 -15 -8
-7 0 -29 -9 -50 -20 -20 -11 -42 -20 -48 -20 -6 0 -17 -7 -25 -15 -9 -8 -26
-15 -38 -15 -13 0 -29 -7 -36 -15 -7 -8 -23 -15 -35 -15 -13 0 -25 -5 -27 -10
-2 -6 -21 -13 -43 -17 -22 -3 -46 -12 -53 -20 -7 -7 -25 -13 -40 -13 -15 0
-36 -7 -46 -15 -11 -8 -34 -15 -50 -15 -17 0 -40 -7 -50 -15 -11 -8 -32 -15
-46 -15 -14 0 -35 -7 -46 -15 -10 -8 -34 -15 -53 -15 -19 0 -48 -4 -65 -9
-107 -33 -229 -57 -386 -77 -68 -8 -130 -20 -137 -26 -7 -6 -13 -28 -13 -49
l0 -39 2415 0 2415 0 0 5120 0 5120 -2403 0 -2403 0 -12 -147z"/>
</g>
</svg>
